<svg xmlns="http://www.w3.org/2000/svg" width="116" height="37.451" viewBox="0 0 116 37.451">
  <g id="p-logo" transform="translate(-40 -114.486)">
    <g id="dcaa41f8-a8c0-4c48-9aa3-eea5c1190a5e" transform="translate(84.305 120.728)">
      <path id="Path_52" data-name="Path 52" d="M15.731,5.322h0a11.687,11.687,0,0,1,7.706,2.784h0a.706.706,0,0,1,.29.624h0a1.062,1.062,0,0,1-.245.668h0a.9.9,0,0,1-.69.29h0a1.226,1.226,0,0,1-.78-.379h0a9.109,9.109,0,0,0-6.281-2.116h0a9.586,9.586,0,0,0-5.123,1.47h0a10.946,10.946,0,0,0-3.786,3.9h0a10.363,10.363,0,0,0-1.4,5.234h0A10.66,10.66,0,0,0,6.8,23.118h0a10.535,10.535,0,0,0,3.786,3.875h0a9.847,9.847,0,0,0,5.145,1.425h0a9.86,9.86,0,0,0,6.459-2.272h0a.8.8,0,0,1,.468-.156h0a.918.918,0,0,1,.668.29h0a.867.867,0,0,1,.312.69h0a.923.923,0,0,1-.223.646h0Q20.72,30.29,15.731,30.29h0A11.561,11.561,0,0,1,9.651,28.6h0A12.461,12.461,0,0,1,5.2,24.009h0a12.278,12.278,0,0,1-1.648-6.214h0a12.408,12.408,0,0,1,1.626-6.214h0A12.805,12.805,0,0,1,9.606,7.015h0a11.64,11.64,0,0,1,6.125-1.693ZM27.78,6.57h0a.89.89,0,0,1,.267-.69h0a.951.951,0,0,1,.668-.245h0a.982.982,0,0,1,.69.245h0a.934.934,0,0,1,.245.69h0V24.833h0a4.219,4.219,0,0,0,.6,2.361h0a1.822,1.822,0,0,0,1.581.913h.78a.7.7,0,0,1,.557.267h0a.956.956,0,0,1,.223.668h0a.9.9,0,0,1-.245.668h0a.934.934,0,0,1-.69.267h-.624a3.566,3.566,0,0,1-2.918-1.425h0a5.789,5.789,0,0,1-1.136-3.719h0Zm23.475,6.37h0a.934.934,0,0,1,.69.245h0a.934.934,0,0,1,.245.69h0V29.042h0a.9.9,0,0,1-.245.668h0a.89.89,0,0,1-.69.267h0a.907.907,0,0,1-.668-.267h0a.862.862,0,0,1-.267-.668h0v-1.6h0a7.65,7.65,0,0,1-2.584,2.027h0A7.642,7.642,0,0,1,44.4,30.2h0a8.723,8.723,0,0,1-4.076-.935h0a6.865,6.865,0,0,1-2.806-2.717h0a8.719,8.719,0,0,1-1-4.3h0V13.875h0a.934.934,0,0,1,.267-.69h0a.951.951,0,0,1,.668-.245h0a.951.951,0,0,1,.668.245h0a.934.934,0,0,1,.267.69h0v8.374h0a5.884,5.884,0,0,0,1.67,4.521h0A6.11,6.11,0,0,0,44.4,28.33h0a6.913,6.913,0,0,0,3.007-.646h0a5.114,5.114,0,0,0,2.138-1.76h0a4.35,4.35,0,0,0,.78-2.517h0V13.875h0a.89.89,0,0,1,.267-.69h0a.951.951,0,0,1,.668-.245Zm7.483-7.305h0a.934.934,0,0,0-.69.245h0a.934.934,0,0,0-.245.69h0V21.626h0a8.581,8.581,0,0,0,1.18,4.365h0a8.321,8.321,0,0,0,3.14,3.074h0a8.8,8.8,0,0,0,4.388,1.114h0a8.876,8.876,0,0,0,4.454-1.136h0a8.389,8.389,0,0,0,3.14-3.14h0a8.876,8.876,0,0,0,1.136-4.454h0a8.833,8.833,0,0,0-1.136-4.432h0a8.389,8.389,0,0,0-3.14-3.14h0a8.876,8.876,0,0,0-4.454-1.136h0A8.332,8.332,0,0,0,62.5,13.7h0A7.267,7.267,0,0,0,59.674,16.3h0V6.57h0a.89.89,0,0,0-.267-.69h0a.951.951,0,0,0-.668-.245Zm7.773,22.785h0a6.789,6.789,0,0,1-3.5-.913h0a6.543,6.543,0,0,1-2.45-2.517h0a7.088,7.088,0,0,1-.891-3.541h0a7.213,7.213,0,0,1,.891-3.564h0a6.587,6.587,0,0,1,2.45-2.494h0a6.921,6.921,0,0,1,3.5-.891h0a6.878,6.878,0,0,1,3.474.891h0a6.754,6.754,0,0,1,2.472,2.494h0a7.074,7.074,0,0,1,.913,3.564h0a6.952,6.952,0,0,1-.913,3.541h0a6.706,6.706,0,0,1-2.472,2.517h0a6.747,6.747,0,0,1-3.474.913Z" transform="translate(-3.548 -5.322)" fill="#fff"/>
    </g>
    <g id="ad0eeffd-7d70-4841-a803-9022d104c929" transform="translate(40 114.486)">
      <g id="Group_2686" data-name="Group 2686" transform="translate(0 0)">
        <path id="Path_53" data-name="Path 53" d="M30.984,21.529a9.455,9.455,0,1,0,9.454,9.454A9.465,9.465,0,0,0,30.984,21.529Zm3.771,6.021H29.53v2.984h4.521v1.136H29.53v4.377H28.256V26.414h6.5Z" transform="translate(-12.258 -12.258)" fill="#fff"/>
        <path id="Path_54" data-name="Path 54" d="M22.672,3.946A18.726,18.726,0,1,0,41.4,22.672,18.725,18.725,0,0,0,22.672,3.946Zm0,29.286a10.56,10.56,0,1,1,10.56-10.56A10.572,10.572,0,0,1,22.672,33.232Z" transform="translate(-3.946 -3.946)" fill="#fff"/>
      </g>
    </g>
  </g>
</svg>
